<?xml version="1.0" encoding="UTF-8" standalone="no"?>
<!-- Created with Inkscape (http://www.inkscape.org/) -->

<svg
   width="200mm"
   height="200mm"
   viewBox="0 0 200 200"
   version="1.1"
   id="svg5"
   inkscape:version="1.2.1 (9c6d41e, 2022-07-14)"
   sodipodi:docname="wormsplot.svg"
   xmlns:inkscape="http://www.inkscape.org/namespaces/inkscape"
   xmlns:sodipodi="http://sodipodi.sourceforge.net/DTD/sodipodi-0.dtd"
   xmlns="http://www.w3.org/2000/svg"
   xmlns:svg="http://www.w3.org/2000/svg">
  <sodipodi:namedview
     id="namedview7"
     pagecolor="#ffffff"
     bordercolor="#000000"
     borderopacity="0.25"
     inkscape:showpageshadow="2"
     inkscape:pageopacity="0.0"
     inkscape:pagecheckerboard="0"
     inkscape:deskcolor="#d1d1d1"
     inkscape:document-units="mm"
     showgrid="false"
     inkscape:zoom="0.98990943"
     inkscape:cx="259.61971"
     inkscape:cy="461.6584"
     inkscape:window-width="1470"
     inkscape:window-height="750"
     inkscape:window-x="0"
     inkscape:window-y="37"
     inkscape:window-maximized="0"
     inkscape:current-layer="layer2" />
  <defs
     id="defs2" />
  <g
     inkscape:label="background"
     inkscape:groupmode="layer"
     id="layer1">
    <path
       sodipodi:type="star"
       style="fill:#f2f2f2;stroke-width:0.264583;stroke-miterlimit:10;-inkscape-stroke:none;stop-color:#000000"
       id="path1219"
       inkscape:flatsided="true"
       sodipodi:sides="6"
       sodipodi:cx="96.74234"
       sodipodi:cy="84.861702"
       sodipodi:r1="87.444618"
       sodipodi:r2="50.522106"
       sodipodi:arg1="1.5707963"
       sodipodi:arg2="2.0943951"
       inkscape:rounded="0"
       inkscape:randomized="0"
       d="m 96.742342,172.30632 -75.729262,-43.72231 -2e-6,-87.444615 75.72926,-43.7223113 75.729262,43.7223073 0,87.444619 z"
       inkscape:transform-center-y="8.4320635"
       transform="matrix(1.0712736,0,0,1.0098015,-3.6375123,13.189439)"
       inkscape:transform-center-x="-4.7782135e-06" />
    <g
       id="vertical"
       style="stroke-width:1.5;stroke-dasharray:none">
      <path
         style="fill:none;stroke:#fefefe;stroke-width:1.5;stroke-miterlimit:10;stroke-dasharray:none;stroke-opacity:1;stop-color:#000000"
         d="M 100.03879,196.38472 V 6.6057585 Z"
         id="path438"
         inkscape:label="path438" />
      <path
         style="fill:none;stroke:#fefefe;stroke-width:1.5;stroke-miterlimit:10;stroke-dasharray:none;stroke-opacity:1;stop-color:#000000"
         d="M 21.038795,190.54806 V 0.7690958 Z"
         id="path1298"
         inkscape:label="path438" />
      <path
         style="fill:none;stroke:#fefefe;stroke-width:1.5;stroke-miterlimit:10;stroke-dasharray:none;stroke-opacity:1;stop-color:#000000"
         d="M 60.038795,190.54806 V 0.7690958 Z"
         id="path438-5"
         inkscape:label="path438" />
      <path
         style="fill:none;stroke:#fefefe;stroke-width:1.5;stroke-miterlimit:10;stroke-dasharray:none;stroke-opacity:1;stop-color:#000000"
         d="M 140.03879,190.54806 V 0.7690958 Z"
         id="path1270"
         inkscape:label="path438" />
      <path
         style="fill:none;stroke:#fefefe;stroke-width:1.5;stroke-miterlimit:10;stroke-dasharray:none;stroke-opacity:1;stop-color:#000000"
         d="M 179.03879,190.54806 V 0.7690958 Z"
         id="path1282"
         inkscape:label="path438" />
    </g>
    <g
       id="horizontal"
       style="stroke-width:1.5;stroke-dasharray:none"
       transform="matrix(0,1,-0.89776028,0,188.08268,-1.461882)">
      <path
         style="fill:none;stroke:#fefefe;stroke-width:1.5;stroke-miterlimit:10;stroke-dasharray:none;stroke-opacity:1;stop-color:#000000"
         d="M 100.03879,196.38472 V 6.6057585 Z"
         id="path2069"
         inkscape:label="path438" />
      <path
         style="fill:none;stroke:#fefefe;stroke-width:1.5;stroke-miterlimit:10;stroke-dasharray:none;stroke-opacity:1;stop-color:#000000"
         d="M 21.038795,190.54806 V 0.7690958 Z"
         id="path2071"
         inkscape:label="path438" />
      <path
         style="fill:none;stroke:#fefefe;stroke-width:1.5;stroke-miterlimit:10;stroke-dasharray:none;stroke-opacity:1;stop-color:#000000"
         d="M 60.038795,190.54806 V 0.7690958 Z"
         id="path2073"
         inkscape:label="path438" />
      <path
         style="fill:none;stroke:#fefefe;stroke-width:1.5;stroke-miterlimit:10;stroke-dasharray:none;stroke-opacity:1;stop-color:#000000"
         d="M 140.03879,190.54806 V 0.7690958 Z"
         id="path2075"
         inkscape:label="path438" />
      <path
         style="fill:none;stroke:#fefefe;stroke-width:1.5;stroke-miterlimit:10;stroke-dasharray:none;stroke-opacity:1;stop-color:#000000"
         d="M 179.03879,190.54806 V 0.7690958 Z"
         id="path2077"
         inkscape:label="path438" />
    </g>
    <path
       id="path133"
       style="fill:#4d4d4d;stroke-width:0.264583;stroke-miterlimit:10;-inkscape-stroke:none;stop-color:#000000"
       inkscape:transform-center-x="-4.1330689e-06"
       inkscape:transform-center-y="9.4502515"
       d="M 96.74242 -2.5828565 L 21.012996 41.139553 L 21.012996 128.58392 L 96.74242 172.30632 L 172.47141 128.58392 L 172.47141 41.139553 L 96.74242 -2.5828565 z M 96.74242 5.9388902 L 164.31255 44.950435 L 164.31255 122.97353 L 96.74242 161.98507 L 29.172286 122.97353 L 29.172286 44.950435 L 96.74242 5.9388902 z "
       transform="matrix(1.2006315,0,0,1.1317366,-16.151899,3.8600068)"
       inkscape:label="path133" />
  </g>
  <g
     inkscape:groupmode="layer"
     id="layer2"
     inkscape:label="worms"
     transform="matrix(-1,0,0,1,199.60998,-1.0583333)">
    <path
       style="color:#000000;fill:#b64f4f;stroke-miterlimit:10"
       d="m 49.544922,51.205078 v 12 h 31.476562 c 0.224846,0.812516 0.443737,1.434803 0.667969,2.8125 0.692023,4.251846 1.166424,10.465493 1.628906,16.746094 0.462483,6.280601 0.912801,12.627841 1.759766,17.798828 0.423483,2.58549 0.892208,4.84745 1.818359,7.04883 0.463076,1.10069 1.021158,2.23169 2.148438,3.41211 1.12728,1.18041 3.222619,2.41992 5.5,2.41992 h 77.785158 v -12 H 97.595703 C 97.369285,100.63212 97.146368,100.00557 96.919922,98.623047 96.22401,94.374286 95.747526,88.161876 95.285156,81.882812 94.822787,75.603749 94.374322,69.257746 93.533203,64.089844 93.112644,61.505893 92.649677,59.247599 91.730469,57.048828 91.270865,55.949443 90.716402,54.82141 89.59375,53.638672 88.471098,52.455934 86.375509,51.205078 84.089844,51.205078 Z"
       id="path2178" />
    <path
       style="color:#000000;fill:#5066b7;stroke-miterlimit:10;-inkscape-stroke:none"
       d="m 27.279297,70.294922 v 12 H 113.2168 c 0.19335,0.761285 0.44028,1.847166 0.65429,3.642578 0.26589,2.230515 0.42873,4.814346 1.64844,7.740234 0.60986,1.462944 1.57642,3.107966 3.25195,4.427735 1.67554,1.319768 3.99871,2.054691 6.11524,2.054691 h 29.70703 V 88.160156 h -28.1582 c -0.19277,-0.768685 -0.43672,-1.850033 -0.65039,-3.642578 -0.26649,-2.235583 -0.4324,-4.825564 -1.66407,-7.755859 -0.61583,-1.465148 -1.59157,-3.109798 -3.27148,-4.423828 -1.67991,-1.314031 -3.99934,-2.042969 -6.11523,-2.042969 z"
       id="path11388" />
  </g>
  <g
     inkscape:groupmode="layer"
     id="layer3"
     inkscape:label="text">
    <g
       aria-label="wormsplot"
       id="text7243"
       style="font-weight:bold;font-size:31.75px;font-family:'PT Sans';-inkscape-font-specification:'PT Sans Bold';text-align:end;direction:rtl;text-anchor:end;fill:#4d4d4d;stroke:#c44343;stroke-width:10;stroke-miterlimit:10"
       inkscape:label="text7243">
      <path
         d="m 41.070649,124.57834 2.88925,8.128 0.5715,2.63525 h 0.127 l 0.4445,-2.667 2.032,-8.09625 h 3.77825 l -4.8895,16.03375 h -3.048 l -3.20675,-8.89 -0.41275,-2.00025 h -0.15875 l -0.381,2.032 -3.048,8.85825 h -3.14325 l -5.11175,-16.03375 h 4.47675 l 2.31775,7.96925 0.381,2.82575 h 0.15875 l 0.53975,-2.8575 2.63525,-7.9375 z"
         style="stroke:none"
         id="path2394" />
      <path
         d="m 51.421085,132.51584 q 0,-4.03225 1.9685,-6.19125 1.9685,-2.19075 5.5245,-2.19075 1.905,0 3.302,0.60325 1.397,0.60325 2.31775,1.7145 0.92075,1.0795 1.36525,2.63525 0.47625,1.55575 0.47625,3.429 0,4.03225 -1.9685,6.223 -1.93675,2.159 -5.49275,2.159 -1.905,0 -3.302,-0.60325 -1.397,-0.60325 -2.3495,-1.68275 -0.92075,-1.11125 -1.397,-2.667 -0.4445,-1.55575 -0.4445,-3.429 z m 4.2545,0 q 0,1.04775 0.1905,1.93675 0.1905,0.889 0.5715,1.55575 0.381,0.66675 0.98425,1.04775 0.635,0.34925 1.49225,0.34925 1.61925,0 2.413,-1.17475 0.79375,-1.17475 0.79375,-3.71475 0,-2.19075 -0.73025,-3.52425 -0.73025,-1.36525 -2.4765,-1.36525 -1.524,0 -2.38125,1.143 -0.85725,1.143 -0.85725,3.7465 z"
         style="stroke:none"
         id="path2396" />
      <path
         d="m 77.995796,128.45184 q -0.98425,-0.34925 -1.778,-0.34925 -1.11125,0 -1.87325,0.60325 -0.73025,0.5715 -0.98425,1.49225 v 10.25525 h -4.1275 v -15.875 h 3.20675 l 0.47625,2.0955 h 0.127 q 0.53975,-1.17475 1.4605,-1.80975 0.92075,-0.635 2.159,-0.635 0.8255,0 1.87325,0.34925 z"
         style="stroke:none"
         id="path2398" />
      <path
         d="m 89.394037,140.45334 v -8.636 q 0,-2.19075 -0.41275,-3.1115 -0.41275,-0.92075 -1.7145,-0.92075 -1.0795,0 -1.74625,0.60325 -0.66675,0.5715 -1.016,1.49225 v 10.57275 h -4.1275 v -15.875 h 3.20675 l 0.47625,2.0955 h 0.127 q 0.73025,-1.016 1.8415,-1.778 1.143,-0.762 2.921,-0.762 1.524,0 2.4765,0.635 0.98425,0.60325 1.524,2.06375 0.73025,-1.23825 1.87325,-1.9685 1.143,-0.73025 2.76225,-0.73025 1.3335,0 2.25425,0.3175 0.952503,0.3175 1.524003,1.11125 0.60325,0.762 0.889,2.06375 0.28575,1.30175 0.28575,3.302 v 9.525 h -4.127503 v -8.92175 q 0,-1.87325 -0.41275,-2.794 -0.381,-0.9525 -1.74625,-0.9525 -1.11125,0 -1.778,0.60325 -0.635,0.60325 -0.9525,1.651 v 10.414 z"
         style="stroke:none"
         id="path2400" />
      <path
         d="m 112.50799,136.07184 q 0,-0.635 -0.53975,-1.016 -0.53975,-0.381 -1.3335,-0.6985 -0.79375,-0.3175 -1.74625,-0.635 -0.9525,-0.34925 -1.74625,-0.92075 -0.79375,-0.60325 -1.3335,-1.49225 -0.53975,-0.92075 -0.53975,-2.3495 0,-2.3495 1.397,-3.58775 1.397,-1.23825 4.03225,-1.23825 1.80975,0 3.27025,0.381 1.4605,0.381 2.286,0.85725 l -0.92075,2.9845 q -0.73025,-0.28575 -1.8415,-0.60325 -1.11125,-0.3175 -2.25425,-0.3175 -1.8415,0 -1.8415,1.42875 0,0.5715 0.53975,0.92075 0.53975,0.34925 1.3335,0.66675 0.79375,0.28575 1.74625,0.635 0.9525,0.34925 1.74625,0.92075 0.79375,0.53975 1.3335,1.42875 0.53975,0.889 0.53975,2.286 0,2.413 -1.55575,3.81 -1.524,1.36525 -4.60375,1.36525 -1.68275,0 -3.175,-0.4445 -1.4605,-0.41275 -2.38125,-0.98425 l 1.143,-3.07975 q 0.73025,0.41275 1.93675,0.8255 1.2065,0.381 2.4765,0.381 0.92075,0 1.4605,-0.34925 0.5715,-0.34925 0.5715,-1.17475 z"
         style="stroke:none"
         id="path2402" />
      <path
         d="m 119.33421,124.57834 h 3.01625 l 0.47625,1.905 h 0.127 q 0.8255,-1.2065 1.93675,-1.778 1.143,-0.5715 2.76225,-0.5715 2.9845,0 4.47675,1.905 1.49225,1.87325 1.49225,6.06425 0,2.032 -0.47625,3.683 -0.47625,1.61925 -1.42875,2.76225 -0.92075,1.143 -2.286,1.74625 -1.3335,0.60325 -3.07975,0.60325 -0.98425,0 -1.61925,-0.15875 -0.635,-0.127 -1.27,-0.4445 v 6.50875 h -4.1275 z m 7.08025,3.048 q -1.2065,0 -1.905,0.60325 -0.66675,0.60325 -1.04775,1.80975 v 6.604 q 0.4445,0.34925 0.9525,0.5715 0.53975,0.1905 1.397,0.1905 1.778,0 2.667,-1.23825 0.889,-1.27 0.889,-4.15925 0,-2.0955 -0.6985,-3.2385 -0.6985,-1.143 -2.25425,-1.143 z"
         style="stroke:none"
         id="path2404" />
      <path
         d="m 140.73367,135.11934 q 0,1.11125 0.28575,1.61925 0.28575,0.508 0.92075,0.508 0.381,0 0.73025,-0.0635 0.381,-0.0635 0.92075,-0.28575 l 0.4445,3.2385 q -0.508,0.254 -1.55575,0.508 -1.04775,0.254 -2.159,0.254 -1.80975,0 -2.76225,-0.8255 -0.9525,-0.85725 -0.9525,-2.794 v -19.05 h 4.1275 z"
         style="stroke:none"
         id="path2406" />
      <path
         d="m 145.05163,132.51584 q 0,-4.03225 1.9685,-6.19125 1.9685,-2.19075 5.5245,-2.19075 1.905,0 3.302,0.60325 1.397,0.60325 2.31775,1.7145 0.92075,1.0795 1.36525,2.63525 0.47625,1.55575 0.47625,3.429 0,4.03225 -1.9685,6.223 -1.93675,2.159 -5.49275,2.159 -1.905,0 -3.302,-0.60325 -1.397,-0.60325 -2.3495,-1.68275 -0.92075,-1.11125 -1.397,-2.667 -0.4445,-1.55575 -0.4445,-3.429 z m 4.2545,0 q 0,1.04775 0.1905,1.93675 0.1905,0.889 0.5715,1.55575 0.381,0.66675 0.98425,1.04775 0.635,0.34925 1.49225,0.34925 1.61925,0 2.413,-1.17475 0.79375,-1.17475 0.79375,-3.71475 0,-2.19075 -0.73025,-3.52425 -0.73025,-1.36525 -2.4765,-1.36525 -1.524,0 -2.38125,1.143 -0.85725,1.143 -0.85725,3.7465 z"
         style="stroke:none"
         id="path2408" />
      <path
         d="m 161.21234,124.57834 h 2.19075 v -2.9845 l 4.1275,-1.17475 v 4.15925 h 3.8735 v 3.4925 h -3.8735 v 6.096 q 0,1.651 0.3175,2.38125 0.34925,0.6985 1.27,0.6985 0.635,0 1.0795,-0.127 0.47625,-0.127 1.04775,-0.381 l 0.73025,3.175 q -0.85725,0.41275 -2.00025,0.6985 -1.143,0.28575 -2.31775,0.28575 -2.19075,0 -3.2385,-1.11125 -1.016,-1.143 -1.016,-3.71475 v -8.001 h -2.19075 z"
         style="stroke:none"
         id="path2410" />
    </g>
    <text
       xml:space="preserve"
       style="font-style:normal;font-variant:normal;font-weight:normal;font-stretch:normal;font-size:4.93888889px;line-height:1;font-family:'PT Sans';-inkscape-font-specification:'PT Sans';text-align:end;text-decoration-color:#000000;direction:rtl;text-anchor:end;fill:#4d4d4d;fill-opacity:1;stroke:#c44343;stroke-width:10;stroke-miterlimit:10;stroke-dasharray:none;stroke-opacity:1;stop-color:#000000"
       x="6.0850167"
       y="210.79669"
       id="text1535"
       inkscape:label="text7243"
       transform="rotate(-28.555289)"><tspan
         sodipodi:role="line"
         id="tspan1533"
         style="font-style:normal;font-variant:normal;font-weight:normal;font-stretch:normal;font-family:'PT Sans';-inkscape-font-specification:'PT Sans';fill:#4d4d4d;fill-opacity:1;stroke:none;stroke-width:10;font-size:4.93888889px"
         x="6.0850167"
         y="210.79669">github.com/rimonim/wormsplot</tspan></text>
  </g>
</svg>
